<?xml version="1.0" encoding="utf-8"?>
<!-- Generator: Adobe Illustrator 26.0.0, SVG Export Plug-In . SVG Version: 6.00 Build 0)  -->
<svg version="1.1" id="Layer_2" xmlns="http://www.w3.org/2000/svg" xmlns:xlink="http://www.w3.org/1999/xlink" x="0px" y="0px"
	 viewBox="0 0 100 100" style="enable-background:new 0 0 100 100;" xml:space="preserve">
<g>
	<path d="M33.4,55.9c-3.3-0.9-6.9,0-6.9,0s-4.9,1.8-7.8,7.4s-2.9,8-2.9,9.6s0.4,4.9,1.4,6.8c1.3,2.4,1.6,2.3,3.3,3.2
		c1.7,0.9,0.9,0,2.6,0.6c1.7,0.6,2.2,0.8,2.2,0.8s-0.5,0.6,0.1-1.4c0.6-2,1-1,2.4-0.8c1.4,0.2,3.6-2.8,4.6-4.2
		c0.9-1.4,4.5-4.6,5.3-7.8c0.8-3.2-0.6-10.2-0.6-10.2S36.7,56.8,33.4,55.9z"/>
	<path d="M55.7,41.6c0,0-0.9-1.7-5.4-1s-5.5,3.6-6,5.2c-0.6,1.6-0.7,1.5-1.3,4.6s-3.7,6.4-5,7.2c-1.3,0.8-2.3-0.8-3.2-1
		c-0.9-0.3,3.2,12.8,3.2,12.8s0.3-3.7,1.9-2.9s4.1-0.2,5.6-2.5c1.5-2.3,1.9-5.6,4.8-5.6s4.5-0.7,5.8-4.1s0.4-6,0-7.4
		c-0.4-1.4,1.5-2.5,3.1-2.3C61.7,45,55.7,41.6,55.7,41.6z"/>
	<path d="M61.4,32.8c-3.4-0.1-4.2,0.2-5.8,1.3s-1.5,1.1-2.3,3.7c-0.8,2.6,0,3.6,0,3.6l2,2.3c0,0,3.6,1.1,6.6,1.1s2.8-0.4,5-1.5
		s4-1.5,2.2-1c-1.7,0.4,1.8-0.3,3.6,0.3c1.8,0.6,1.8,0.6,2.5,0.9c0.7,0.3,0.9-0.5,0.9-0.5l-0.6-1.5c0,0,1,0.7,1-0.1
		c0-0.8-1.2-2.6-2.2-3c-1-0.4-2.8-0.5-2.8-0.5L71.1,37c0,0-2.7-2.3-3.8-2.9S64.7,32.8,61.4,32.8z"/>
	<path d="M60.7,45.9"/>
	<path d="M65.8,33.6c0,0,6.2-3,9.9-3.4c3.7-0.4,12.3-1.5,18.8-0.3c2.1,0.4,4.4,1.3,4.1,1.9c-0.3,0.6,0.9,1.1-0.7,1.1
		c-1.5,0,0.2-1.3-3.9-1.7c-6.5-0.7-13.8,0.2-13.8,0.2s-3.1,0.1-6.5,0.8c-3.4,0.7-7.1,2.7-7.1,2.7L65.8,33.6z"/>
	<path d="M67.2,35.4c0,0,0.8-0.2,3.3-0.2c2.5,0,4.1,0.8,7.4,2c3.3,1.2,12.6,0.8,14.8,2.2c2.2,1.4,4.6,3.8,6.1,3.8s1.4,0.3,0.9-0.5
		c-0.5-0.9-3.9-3.2-6.7-4.6c-2.8-1.4-10.6-1.5-13.5-2.2c-2.9-0.6-4.4-1.5-7.4-2.1c-3-0.5-6.7,0-6.7,0L67.2,35.4z"/>
	<polygon points="54.1,50.6 61.9,57.7 66.3,60.2 71.4,57 79.2,52.8 80,53.2 72.3,57.3 66.9,61.2 64.5,61.2 61.1,60.2 52.6,52.4 	"/>
	<path d="M46.9,43.2l-1.7-6.8l2.4-4.8l1.5-4.9v-3.4h-0.9l-1.3,6.5c0,0-0.6,1.7-1.7,3.3c-1.1,1.6-2.1,3.2-2.1,3.2v4.2l1.7,3.8"/>
	<path d="M49.6,30.7c0,0-8.1-14-8.5-14.6c-0.4-0.7-1.4-3.3-1.4-3.3s-0.3,0.1-0.4,0.1c-0.1,0-0.4-0.6-0.5-0.8
		c-0.1-0.2-0.2-0.6,0.2-0.9s0.6,0,0.9,0.2s0.5,0.7,0.5,0.8c-0.1,0.1-0.3,0.3-0.3,0.3s1.8,2.1,2.2,2.8c0.3,0.5,0.4,0.7,8.5,14.6
		L49.6,30.7z"/>
	<path d="M73.4,59.5c0,0,7.9-13.6,8.3-14.3c0.4-0.7,2.1-2.8,2.1-2.8s-0.2-0.2-0.2-0.3c0-0.1,0.3-0.6,0.5-0.8
		c0.2-0.2,0.5-0.5,0.9-0.2c0.4,0.2,0.3,0.5,0.2,0.8c-0.1,0.3-0.3,0.8-0.5,0.8s-0.4-0.1-0.4-0.1s-0.9,2.6-1.3,3.2
		c-0.4,0.7-8.3,14.3-8.3,14.3L73.4,59.5z"/>
	<path d="M38.1,63.9l3.2-2.4c0,0-6.4-7.6-8.6-9.9s-5-6.6-7.7-5.6s-3.5,17.9-3.5,17.9H24c0,0,0.2-13.8,2.2-14.1c2-0.3,3.6,3,6.2,5.8
		C35.1,58.3,38.1,63.9,38.1,63.9z"/>
	<path d="M39.1,61.2L38.6,66c0,0-10.7-11.6-12.9-11.1S18.6,72.5,17.4,72s-3.6,0.1-3-1.2s3.8-9.6,5-12c1.2-2.4,3.1-6.4,6.7-6.4
		s3.7,1.9,6.4,3.8S39.1,61.2,39.1,61.2z"/>
	<path d="M16.1,70.6c0,0-3.9,11.6-5.3,13.8c-1.4,2.2-3.7,3.8-4.1,4S5,88.9,3.9,88.9S0,88.4,0,87.6s0.4-0.7,0.8-0.6s1.8,1.3,4.2,0.6
		c2.4-0.7,2.7-1.8,4.8-4.4c2.1-2.6,5.3-14.1,5.3-14.1L16.1,70.6z"/>
	<path d="M44.2,60.5c0,0,1.4,2.1,3.1,3.4c1.7,1.3,3,1.6,4.5,1.5c1.4-0.1,1.4-1.9,2.6-1.5c1.1,0.4,7.3,12.2,8.2,12.2
		c0.8,0,1.4-0.4,1.4-1.1c0-0.8-8-12.5-8.6-13.3c-0.6-0.8-1.4-1-2.4-0.7c-1,0.3-0.4,0.8-2,0.8s-2.7-3.9-2.7-3.9l-3.4,0.6L44.2,60.5z"
		/>
	<path d="M76.9,84.9c-1-1.2-2.4-0.1-3.4,0.2c-1,0.2-2,0.5-3.1-0.6c-1.1-1.1-7.1-9.5-7.1-9.5l-0.8,0.5c0,0,3.6,6,5.2,8
		s2.3,2.3,2.3,2.3s1.2,0.7,2.7,0.7c1.4,0,2.9-1.2,3.7-0.8s0.6,1.4,0.6,1.4S77.9,86.1,76.9,84.9z"/>
	<path d="M49.5,56.2c0.4,0,3-0.2,4.1,1.9c1.1,2,6.1,16.6,7.3,18c1.2,1.4,2.8,2.9,4.4,3.6c1.6,0.7,2.3-1.7,3.6-0.9s1.6,2.2,1.6,2.2
		s-1.4-1.6-2.3-1.3c-0.9,0.2-1.5,1.6-2.7,1.3s-3.6-2.1-5.5-4.1c-1.9-1.9-6.6-17.3-7.9-17.8S49.5,56.2,49.5,56.2z"/>
	<path d="M18.4,78.2c0.4-0.2-2.9,4.5-3.7,5.8s-1.6,1.2-1.8,1.2c-0.3,0-0.5-0.2-0.6,0c-0.2,0.4,0.7,0.6,1.2,0.6
		c0.6,0,0.9-0.1,1.8-0.9c0.9-0.8,3.8-5.4,3.8-5.4S18,78.4,18.4,78.2z"/>
</g>
</svg>
